<mxfile host="app.diagrams.net" modified="2022-06-17T06:56:02.929Z" agent="5.0 (Windows NT 10.0; Win64; x64) AppleWebKit/537.36 (KHTML, like Gecko) Chrome/102.0.5005.124 Safari/537.36 Edg/102.0.1245.41" etag="kt231dP86H6IUFws0aXz" version="20.0.1" type="github">
  <diagram id="QmTQEaj53jU5Is_gMAJs" name="Page-1">
    <mxGraphModel dx="769" dy="399" grid="1" gridSize="10" guides="1" tooltips="1" connect="1" arrows="1" fold="1" page="1" pageScale="1" pageWidth="827" pageHeight="1169" math="1" shadow="0">
      <root>
        <mxCell id="0" />
        <mxCell id="1" parent="0" />
        <mxCell id="PnxdUkQCsg3m8Rtuf5cB-2" value="" style="shape=table;startSize=0;container=1;collapsible=0;childLayout=tableLayout;" vertex="1" parent="1">
          <mxGeometry x="40" y="40" width="120" height="120" as="geometry" />
        </mxCell>
        <mxCell id="PnxdUkQCsg3m8Rtuf5cB-3" value="" style="shape=tableRow;horizontal=0;startSize=0;swimlaneHead=0;swimlaneBody=0;top=0;left=0;bottom=0;right=0;collapsible=0;dropTarget=0;fillColor=none;points=[[0,0.5],[1,0.5]];portConstraint=eastwest;" vertex="1" parent="PnxdUkQCsg3m8Rtuf5cB-2">
          <mxGeometry width="120" height="39" as="geometry" />
        </mxCell>
        <mxCell id="PnxdUkQCsg3m8Rtuf5cB-4" value="`x_00^r`" style="shape=partialRectangle;html=1;whiteSpace=wrap;connectable=0;overflow=hidden;fillColor=none;top=0;left=0;bottom=0;right=0;pointerEvents=1;" vertex="1" parent="PnxdUkQCsg3m8Rtuf5cB-3">
          <mxGeometry width="40" height="39" as="geometry">
            <mxRectangle width="40" height="39" as="alternateBounds" />
          </mxGeometry>
        </mxCell>
        <mxCell id="PnxdUkQCsg3m8Rtuf5cB-5" value="&lt;span style=&quot;&quot;&gt;`x_01^r`&lt;/span&gt;" style="shape=partialRectangle;html=1;whiteSpace=wrap;connectable=0;overflow=hidden;fillColor=none;top=0;left=0;bottom=0;right=0;pointerEvents=1;" vertex="1" parent="PnxdUkQCsg3m8Rtuf5cB-3">
          <mxGeometry x="40" width="41" height="39" as="geometry">
            <mxRectangle width="41" height="39" as="alternateBounds" />
          </mxGeometry>
        </mxCell>
        <mxCell id="PnxdUkQCsg3m8Rtuf5cB-6" value="&lt;span style=&quot;&quot;&gt;`x_02^r`&lt;/span&gt;" style="shape=partialRectangle;html=1;whiteSpace=wrap;connectable=0;overflow=hidden;fillColor=none;top=0;left=0;bottom=0;right=0;pointerEvents=1;" vertex="1" parent="PnxdUkQCsg3m8Rtuf5cB-3">
          <mxGeometry x="81" width="39" height="39" as="geometry">
            <mxRectangle width="39" height="39" as="alternateBounds" />
          </mxGeometry>
        </mxCell>
        <mxCell id="PnxdUkQCsg3m8Rtuf5cB-7" value="" style="shape=tableRow;horizontal=0;startSize=0;swimlaneHead=0;swimlaneBody=0;top=0;left=0;bottom=0;right=0;collapsible=0;dropTarget=0;fillColor=none;points=[[0,0.5],[1,0.5]];portConstraint=eastwest;" vertex="1" parent="PnxdUkQCsg3m8Rtuf5cB-2">
          <mxGeometry y="39" width="120" height="42" as="geometry" />
        </mxCell>
        <mxCell id="PnxdUkQCsg3m8Rtuf5cB-8" value="&lt;span style=&quot;&quot;&gt;`x_10^r`&lt;/span&gt;" style="shape=partialRectangle;html=1;whiteSpace=wrap;connectable=0;overflow=hidden;fillColor=none;top=0;left=0;bottom=0;right=0;pointerEvents=1;" vertex="1" parent="PnxdUkQCsg3m8Rtuf5cB-7">
          <mxGeometry width="40" height="42" as="geometry">
            <mxRectangle width="40" height="42" as="alternateBounds" />
          </mxGeometry>
        </mxCell>
        <mxCell id="PnxdUkQCsg3m8Rtuf5cB-9" value="&lt;span style=&quot;&quot;&gt;`x_11^r`&lt;/span&gt;" style="shape=partialRectangle;html=1;whiteSpace=wrap;connectable=0;overflow=hidden;fillColor=none;top=0;left=0;bottom=0;right=0;pointerEvents=1;" vertex="1" parent="PnxdUkQCsg3m8Rtuf5cB-7">
          <mxGeometry x="40" width="41" height="42" as="geometry">
            <mxRectangle width="41" height="42" as="alternateBounds" />
          </mxGeometry>
        </mxCell>
        <mxCell id="PnxdUkQCsg3m8Rtuf5cB-10" value="&lt;span style=&quot;&quot;&gt;`x_12^r`&lt;/span&gt;" style="shape=partialRectangle;html=1;whiteSpace=wrap;connectable=0;overflow=hidden;fillColor=none;top=0;left=0;bottom=0;right=0;pointerEvents=1;" vertex="1" parent="PnxdUkQCsg3m8Rtuf5cB-7">
          <mxGeometry x="81" width="39" height="42" as="geometry">
            <mxRectangle width="39" height="42" as="alternateBounds" />
          </mxGeometry>
        </mxCell>
        <mxCell id="PnxdUkQCsg3m8Rtuf5cB-11" value="" style="shape=tableRow;horizontal=0;startSize=0;swimlaneHead=0;swimlaneBody=0;top=0;left=0;bottom=0;right=0;collapsible=0;dropTarget=0;fillColor=none;points=[[0,0.5],[1,0.5]];portConstraint=eastwest;" vertex="1" parent="PnxdUkQCsg3m8Rtuf5cB-2">
          <mxGeometry y="81" width="120" height="39" as="geometry" />
        </mxCell>
        <mxCell id="PnxdUkQCsg3m8Rtuf5cB-12" value="&lt;span style=&quot;&quot;&gt;`x_20^r`&lt;/span&gt;" style="shape=partialRectangle;html=1;whiteSpace=wrap;connectable=0;overflow=hidden;fillColor=none;top=0;left=0;bottom=0;right=0;pointerEvents=1;" vertex="1" parent="PnxdUkQCsg3m8Rtuf5cB-11">
          <mxGeometry width="40" height="39" as="geometry">
            <mxRectangle width="40" height="39" as="alternateBounds" />
          </mxGeometry>
        </mxCell>
        <mxCell id="PnxdUkQCsg3m8Rtuf5cB-13" value="&lt;span style=&quot;&quot;&gt;`x_21^r`&lt;/span&gt;" style="shape=partialRectangle;html=1;whiteSpace=wrap;connectable=0;overflow=hidden;fillColor=none;top=0;left=0;bottom=0;right=0;pointerEvents=1;" vertex="1" parent="PnxdUkQCsg3m8Rtuf5cB-11">
          <mxGeometry x="40" width="41" height="39" as="geometry">
            <mxRectangle width="41" height="39" as="alternateBounds" />
          </mxGeometry>
        </mxCell>
        <mxCell id="PnxdUkQCsg3m8Rtuf5cB-14" value="&lt;span style=&quot;&quot;&gt;`x_22^r`&lt;/span&gt;" style="shape=partialRectangle;html=1;whiteSpace=wrap;connectable=0;overflow=hidden;fillColor=none;top=0;left=0;bottom=0;right=0;pointerEvents=1;" vertex="1" parent="PnxdUkQCsg3m8Rtuf5cB-11">
          <mxGeometry x="81" width="39" height="39" as="geometry">
            <mxRectangle width="39" height="39" as="alternateBounds" />
          </mxGeometry>
        </mxCell>
        <mxCell id="PnxdUkQCsg3m8Rtuf5cB-16" value="" style="shape=table;startSize=0;container=1;collapsible=0;childLayout=tableLayout;" vertex="1" parent="1">
          <mxGeometry x="200" y="40" width="120" height="120" as="geometry" />
        </mxCell>
        <mxCell id="PnxdUkQCsg3m8Rtuf5cB-17" value="" style="shape=tableRow;horizontal=0;startSize=0;swimlaneHead=0;swimlaneBody=0;top=0;left=0;bottom=0;right=0;collapsible=0;dropTarget=0;fillColor=none;points=[[0,0.5],[1,0.5]];portConstraint=eastwest;" vertex="1" parent="PnxdUkQCsg3m8Rtuf5cB-16">
          <mxGeometry width="120" height="39" as="geometry" />
        </mxCell>
        <mxCell id="PnxdUkQCsg3m8Rtuf5cB-18" value="`x_00^g`" style="shape=partialRectangle;html=1;whiteSpace=wrap;connectable=0;overflow=hidden;fillColor=none;top=0;left=0;bottom=0;right=0;pointerEvents=1;" vertex="1" parent="PnxdUkQCsg3m8Rtuf5cB-17">
          <mxGeometry width="40" height="39" as="geometry">
            <mxRectangle width="40" height="39" as="alternateBounds" />
          </mxGeometry>
        </mxCell>
        <mxCell id="PnxdUkQCsg3m8Rtuf5cB-19" value="&lt;span style=&quot;&quot;&gt;`x_01^g`&lt;/span&gt;" style="shape=partialRectangle;html=1;whiteSpace=wrap;connectable=0;overflow=hidden;fillColor=none;top=0;left=0;bottom=0;right=0;pointerEvents=1;" vertex="1" parent="PnxdUkQCsg3m8Rtuf5cB-17">
          <mxGeometry x="40" width="41" height="39" as="geometry">
            <mxRectangle width="41" height="39" as="alternateBounds" />
          </mxGeometry>
        </mxCell>
        <mxCell id="PnxdUkQCsg3m8Rtuf5cB-20" value="&lt;span style=&quot;&quot;&gt;`x_02^g`&lt;/span&gt;" style="shape=partialRectangle;html=1;whiteSpace=wrap;connectable=0;overflow=hidden;fillColor=none;top=0;left=0;bottom=0;right=0;pointerEvents=1;" vertex="1" parent="PnxdUkQCsg3m8Rtuf5cB-17">
          <mxGeometry x="81" width="39" height="39" as="geometry">
            <mxRectangle width="39" height="39" as="alternateBounds" />
          </mxGeometry>
        </mxCell>
        <mxCell id="PnxdUkQCsg3m8Rtuf5cB-21" value="" style="shape=tableRow;horizontal=0;startSize=0;swimlaneHead=0;swimlaneBody=0;top=0;left=0;bottom=0;right=0;collapsible=0;dropTarget=0;fillColor=none;points=[[0,0.5],[1,0.5]];portConstraint=eastwest;" vertex="1" parent="PnxdUkQCsg3m8Rtuf5cB-16">
          <mxGeometry y="39" width="120" height="42" as="geometry" />
        </mxCell>
        <mxCell id="PnxdUkQCsg3m8Rtuf5cB-22" value="&lt;span style=&quot;&quot;&gt;`x_10^g`&lt;/span&gt;" style="shape=partialRectangle;html=1;whiteSpace=wrap;connectable=0;overflow=hidden;fillColor=none;top=0;left=0;bottom=0;right=0;pointerEvents=1;" vertex="1" parent="PnxdUkQCsg3m8Rtuf5cB-21">
          <mxGeometry width="40" height="42" as="geometry">
            <mxRectangle width="40" height="42" as="alternateBounds" />
          </mxGeometry>
        </mxCell>
        <mxCell id="PnxdUkQCsg3m8Rtuf5cB-23" value="&lt;span style=&quot;&quot;&gt;`x_11^g`&lt;/span&gt;" style="shape=partialRectangle;html=1;whiteSpace=wrap;connectable=0;overflow=hidden;fillColor=none;top=0;left=0;bottom=0;right=0;pointerEvents=1;" vertex="1" parent="PnxdUkQCsg3m8Rtuf5cB-21">
          <mxGeometry x="40" width="41" height="42" as="geometry">
            <mxRectangle width="41" height="42" as="alternateBounds" />
          </mxGeometry>
        </mxCell>
        <mxCell id="PnxdUkQCsg3m8Rtuf5cB-24" value="&lt;span style=&quot;&quot;&gt;`x_12^g`&lt;/span&gt;" style="shape=partialRectangle;html=1;whiteSpace=wrap;connectable=0;overflow=hidden;fillColor=none;top=0;left=0;bottom=0;right=0;pointerEvents=1;" vertex="1" parent="PnxdUkQCsg3m8Rtuf5cB-21">
          <mxGeometry x="81" width="39" height="42" as="geometry">
            <mxRectangle width="39" height="42" as="alternateBounds" />
          </mxGeometry>
        </mxCell>
        <mxCell id="PnxdUkQCsg3m8Rtuf5cB-25" value="" style="shape=tableRow;horizontal=0;startSize=0;swimlaneHead=0;swimlaneBody=0;top=0;left=0;bottom=0;right=0;collapsible=0;dropTarget=0;fillColor=none;points=[[0,0.5],[1,0.5]];portConstraint=eastwest;" vertex="1" parent="PnxdUkQCsg3m8Rtuf5cB-16">
          <mxGeometry y="81" width="120" height="39" as="geometry" />
        </mxCell>
        <mxCell id="PnxdUkQCsg3m8Rtuf5cB-26" value="&lt;span style=&quot;&quot;&gt;`x_20^g`&lt;/span&gt;" style="shape=partialRectangle;html=1;whiteSpace=wrap;connectable=0;overflow=hidden;fillColor=none;top=0;left=0;bottom=0;right=0;pointerEvents=1;" vertex="1" parent="PnxdUkQCsg3m8Rtuf5cB-25">
          <mxGeometry width="40" height="39" as="geometry">
            <mxRectangle width="40" height="39" as="alternateBounds" />
          </mxGeometry>
        </mxCell>
        <mxCell id="PnxdUkQCsg3m8Rtuf5cB-27" value="&lt;span style=&quot;&quot;&gt;`x_21^g`&lt;/span&gt;" style="shape=partialRectangle;html=1;whiteSpace=wrap;connectable=0;overflow=hidden;fillColor=none;top=0;left=0;bottom=0;right=0;pointerEvents=1;" vertex="1" parent="PnxdUkQCsg3m8Rtuf5cB-25">
          <mxGeometry x="40" width="41" height="39" as="geometry">
            <mxRectangle width="41" height="39" as="alternateBounds" />
          </mxGeometry>
        </mxCell>
        <mxCell id="PnxdUkQCsg3m8Rtuf5cB-28" value="&lt;span style=&quot;&quot;&gt;`x_22^g`&lt;/span&gt;" style="shape=partialRectangle;html=1;whiteSpace=wrap;connectable=0;overflow=hidden;fillColor=none;top=0;left=0;bottom=0;right=0;pointerEvents=1;" vertex="1" parent="PnxdUkQCsg3m8Rtuf5cB-25">
          <mxGeometry x="81" width="39" height="39" as="geometry">
            <mxRectangle width="39" height="39" as="alternateBounds" />
          </mxGeometry>
        </mxCell>
      </root>
    </mxGraphModel>
  </diagram>
</mxfile>
